<svg xmlns="http://www.w3.org/2000/svg" viewBox="0 0 762 762" fill="none" shape-rendering="auto"><metadata xmlns:rdf="http://www.w3.org/1999/02/22-rdf-syntax-ns#" xmlns:xsi="http://www.w3.org/2001/XMLSchema-instance" xmlns:dc="http://purl.org/dc/elements/1.1/" xmlns:dcterms="http://purl.org/dc/terms/"><rdf:RDF><rdf:Description><dc:title>Adventurer</dc:title><dc:creator>Lisa Wischofsky</dc:creator><dc:source xsi:type="dcterms:URI">https://www.figma.com/community/file/1184595184137881796</dc:source><dcterms:license xsi:type="dcterms:URI">https://creativecommons.org/licenses/by/4.0/</dcterms:license><dc:rights>Remix of „Adventurer” (https://www.figma.com/community/file/1184595184137881796) by „Lisa Wischofsky”, licensed under „CC BY 4.0” (https://creativecommons.org/licenses/by/4.0/)</dc:rights></rdf:Description></rdf:RDF></metadata><mask id="viewboxMask"><rect width="762" height="762" rx="0" ry="0" x="0" y="0" fill="#fff"/></mask><g mask="url(#viewboxMask)"><path d="M396 164.8a224.8 224.8 0 0 1 104.8 42.4c6.2 4.9 12.5 9.4 18 15a225.4 225.4 0 0 1 71.8 149 58.5 58.5 0 0 1 50.9 42.2 71 71 0 0 1-27.6 76.5c-11 7.7-24.5 12-38 11.7-5 0-10-1.6-15-1.8-1.9 2.2-3.3 4.9-4.8 7.3A223.3 223.3 0 0 1 389 609.8c-11 .7-21.9 2-33 .7a223.7 223.7 0 0 1-178.8-342.3A223.4 223.4 0 0 1 352 163.5c14.6-1.4 29.4-.3 44 1.3Z" fill="#000"/><path fill-rule="evenodd" clip-rule="evenodd" d="M498.8 213.2A216 216 0 0 0 363 169c-13-.2-26.2 1.6-39 4a218 218 0 0 0-113.6 365.5 218.5 218.5 0 0 0 260.4 40.2c35-18.8 64.2-47.3 84.4-81.5l-3-1.6c-2.8-1.4-5.7-3-8-5-2.2-2-.3-5.8 2.7-4.7 1.5.7 3 1.6 4.4 2.4a55 55 0 0 0 59.6-3.6 64.5 64.5 0 0 0 25-69.8 53.1 53.1 0 0 0-24-31 52.6 52.6 0 0 0-47-2.8c-1.6.8-3.4 1.5-5 1.3-2.5-.2-2.8-4.2-.6-5.2 8-4 16.5-5.6 25.4-6.4a217 217 0 0 0-72-146.4c-4.4-4-8.7-8.1-13.9-11.3Zm107.6 196.2c2-1.2 1.3-5.1-1.4-5-2 0-4.2.8-6.2 1.6l-1.4.4a95.1 95.1 0 0 0-25.5 12.4c-2.2 2-2.2 4.4.1 6.2a92 92 0 0 0 5.2 2.8 36 36 0 0 1 13 9.2c-.2 1.9-2 3.4-3.4 4.5l-.2.2c-3.9 3-8.8 5-13.6 7-2.5 1-4.9 2-7.1 3.1-1.7.8-2.6 2.2-1.6 3.9 1 2 3.2 1.1 5 .5l.6-.2 5.4-2.3c5.4-2.3 11-4.5 15.4-8 2.7-2.1 5.1-5.1 5.4-8.7-.5-3.4-2.7-5.7-5.3-7.8a83 83 0 0 0-11.6-7.2l-1.1-.6c5.4-3 10.8-5.6 16.6-7.7l5-1.7a52 52 0 0 0 6.7-2.6Z" fill="#ecad80"/><g transform="translate(-161 -83)"><path d="M590 433c11.8 7 21 17.6 26.7 30 5.9-3.1 11.6-6.7 17.6-9.6 1.8-1 4.4.5 4 2.6.2 1.5-2 2.5-3 3.2l-16.4 9a65.7 65.7 0 0 1-39.4 82.3A65.9 65.9 0 0 1 501 523c-6-9.9-9.3-21.4-9.3-33a64.8 64.8 0 0 1 53.3-64.8c15.2-3 31.6 0 45 7.9Z" fill="#000"/><path d="M549.2 430.3a59.7 59.7 0 0 1 67.2 59.7 59.5 59.5 0 1 1-67.2-59.7Z" fill="#fff"/><path d="M390 447a55 55 0 1 1-55.7 38.6l-11.3-4.5c-2-.8-4-1.4-5.4-3-.4-2.5.8-4 3.2-3.7 5.2 1.3 10 4.2 15.2 5.6 1.4-1.7 2.2-3.8 3.3-5.7A55 55 0 0 1 390 447Z" fill="#000"/><path d="M376.5 453.7a49.3 49.3 0 1 1 20.8 96.4 49.3 49.3 0 0 1-20.8-96.4Z" fill="#fff"/><path d="M578.3 465.4a24.9 24.9 0 0 1 27.9 24.6c-.4 4.8-1.8 9.7-4.6 13.6a24.6 24.6 0 0 1-18.6 10.6c-8.2.5-16.4-3.3-21.2-10-6-8-6.3-19.8-.6-28a24.7 24.7 0 0 1 17-10.8ZM408.4 478.5a23 23 0 0 1 19.7 7.5c4 4.4 6 10 5.7 16 0 12-10.7 22.8-22.8 22.3a23 23 0 0 1-22.9-22.3 22.8 22.8 0 0 1 20.3-23.5Z" fill="#000"/></g><g transform="translate(-161 -83)"><path d="M614 407a133.9 133.9 0 0 0-92-35 175 175 0 0 0-26.4 3c-1.5 3.3-2.5 6.6-3.5 10l-1.2 3.7v-1.4a170 170 0 0 0-1.4-11.4l-3.2-1.5-.8 1.1c-.6.8-1.3 1.6-1.3 2.4 0 3.8.3 7.5.7 11.3.3 2.8.6 5.5.7 8.3l.2 2.2c.1 2.4.3 5 1.6 6.9 2.9.7 6-.4 9-1.4l3.1-1c19-5.5 39.2-6.8 58.7-4.4 20 2.3 40 8.3 57.4 18.6 2 1 4 1.8 6.2 2.5l1.7-3.4c-2.7-4-6-7.3-9.5-10.5ZM422.3 399.6c0-4.2.2-8.5 0-12.7-.3-2.5-1.9-2.5-3.7-2.6h-1c-1 3.6-1 7.5-1.2 11.3l-.3 5-4.5-11.4-.4-.8c-.4-1.1-.9-2.3-2.2-2.3-2.5 0-5 .4-7.5.9l-3.5.6a128 128 0 0 0-52 20.3 53 53 0 0 0-16.7 18.5c-1.5 3.2-2.9 6.5-1.6 10h.4c1 .4 2.6.9 3.4.1a92 92 0 0 0 2.7-2.1c2-1.7 4.1-3.4 6.5-4.6a152.8 152.8 0 0 1 68.3-15.3c1.9 0 3.7.2 5.5.5 1.9.3 3.7.5 5.6.5 1.8-1.2 1.9-3.6 2-5.7V408c0-2.8 0-5.6.2-8.4Z" fill="#000"/></g><g transform="translate(-161 -83)"><path d="M504 568.7c3.7-1.3 5.6 4 2.2 5.5-5.7 2.8-10.8 6.6-13 12.8-2.2 6.4.5 13.1 4.8 18 3 3.4 6.6 5.4 10.4 7.7 2 1 1.3 2.8 1.1 4.6l-2.5 1A37 37 0 0 1 491 606c-2.3-3.2-3.3-6.7-4.6-10.3-25.1 2-50.4 2.8-75.5 4.7-1.8-.3-2.4-2-3.5-3.3 1.1-1.2 1.7-2.7 3.5-2.8 17.4-.9 34.6-2 52-3 7.8-.7 15.7-.5 23.5-1.5a27.9 27.9 0 0 1 17.5-21Z" fill="#000"/></g><g transform="translate(-161 -83)"/><g transform="translate(-161 -83)"/><g transform="translate(-161 -83)"><path d="M548 194.3c8.7.8 17.2 3 25.3 6.4 12 5 24 12.4 32.6 22.4 5.4 6.7 10.2 14.1 15 21.4 11.4-2 22.4-4.9 34-5.7a167 167 0 0 1 43.3 1.1 97 97 0 0 1 43.3 21.5 100.4 100.4 0 0 1 25.2 30 195.3 195.3 0 0 1 20.5 59.4c3.4 17.3 5.2 34.7 13.3 50.8 5.9 12 15.9 22.3 26 30.9 11 9.1 23.3 17.4 31.9 29a45.3 45.3 0 0 1 10 29.5 48 48 0 0 1-9.2 25.2c5.4 5.8 13.1 7.3 20.8 7 4.4-.4 9.3-1.5 12.6-4.6 1.6-1.2 2.8-3.2 5.1-2.4 2.4.7 1.7 4 1.7 5.8a117 117 0 0 1-17.5 48 96.8 96.8 0 0 1-43.4 38.5c-9.4 4-19.6 4.7-29.7 3a103.9 103.9 0 0 1-54.8 42.8 81.3 81.3 0 0 1-41.7 3.5 53.3 53.3 0 0 1-55.1 17.9c-7.4-2.1-14.7-6.3-19.5-12.4-1-1.4-1.6-3.4 0-4.6 2.4-2 5.4-3.3 8-5 13.8-9 26.6-20 38.2-31.8a210.3 210.3 0 0 0 33-43c1.3-2.3 3-3.1 5.6-2.3 5.8 2.1 11.4 1.5 17.4 1.7a134.2 134.2 0 0 1-30.2-66.9 105 105 0 0 1-35.2-35c-9.9-16.1-16-34.5-21.4-52.5-6-19.7-12.5-38.6-22.3-56.8-4.4-8.2-9.3-16.4-15.5-23.4-6.2-7-13.7-13-22.3-16.7-6.6-2.6-13.1-3.2-20-3.9-2.2-.1-3-1.6-2.5-3.6 1.5-4.7 4-9 5.8-13.6-7 3.7-13.8 7.7-20.3 12-1.2.7-2.6 1.8-4 1.6-2.1-.8-2.1-2.6-2.8-4.3-3-10.3-11-18.1-20.5-22.9-6-2.8-12.2-5-19-5.3a71 71 0 0 1 20.3 22c.8 1.4 1.6 2.8 2.9 3.9-.5 1.6.3 4.4-2 4.8-3.4 1.1-5-4.4-6.5-6.5a57.9 57.9 0 0 0-25.1-23.7 59.3 59.3 0 0 0-15.4 5.9c7.7 4.2 14.4 10.6 20.8 16.6.1 2 .6 3.5-1.6 4.5-3 .5-5.4-3.4-7.5-5.1a55 55 0 0 0-17.4-12.4c-6 4-11.7 8.6-16.8 13.8a165 165 0 0 0-31.4 51.1c-7 16.8-13 34-18.8 51.2-9 25.3-19.1 50.8-31.3 74.7a221.3 221.3 0 0 1-29.3 44.8c-7 8.2-15.4 15.3-24.4 21.1a135 135 0 0 0 12.4 24.8c10.8 17.2 23.2 33.9 37.8 48.1 1.9 2.2 5.5 4 3.6 7.3a44.2 44.2 0 0 1-25.2 23 68 68 0 0 1-74.7-21 47.7 47.7 0 0 1-10.7-31.3c-5.6-.2-11.2-.5-16.6-2.1a79 79 0 0 1-39.4-28 111.7 111.7 0 0 1-22.7-57c-1.5-12-.3-24.5 2.7-36.3.5-1.5 1-4.6 2.7-5 3.3 0 6.6 1 9.9 1.2a47 47 0 0 0 33.4-12c11-9.8 17.4-24 20.6-38.2-3.2-3.1-6-6.5-7.5-10.7a53 53 0 0 1 1.2-37.7 150 150 0 0 1 33.4-51.8 196 196 0 0 1 45-33.9c11.8-6.7 23.5-13.4 35.8-19.2 20-9.7 39.3-17.4 58.1-28.9 19.5-11.8 38-27.8 58.4-37.6 10.8-5 22.1-10 33.8-12.2 10-2 19.8-1.9 29.8-1Z" fill="#000"/><g fill="#cb6820"><path d="M527 200c5.3-.3 10.7-.2 16 0 14.7.6 28.5 5.5 41 12.9 6.7 4.3 13.1 8.8 18 15 5.6 7 10.6 14.3 15.4 21.7 1.5 2.5 4.1.7 6.1.2a206 206 0 0 1 39.7-5.5c14-.4 29.4-.6 42.8 3.8a103 103 0 0 1 58.6 52.3 189.4 189.4 0 0 1 15.7 47c4 19.1 5.7 38.3 14.3 56a99.5 99.5 0 0 0 23.8 30.2c7.4 6.7 15.6 12.3 23 19a59 59 0 0 1 20.2 29.4c2.5 10.5-1 21.7-7.3 30.2-1 1.7-2.3 2.7-1.5 4.8 2.3 5 6.5 8 11.5 9.9a39 39 0 0 0 28.5-.5A114 114 0 0 1 858 589c-10.3 9-23 16.4-37 17.4-4.5.5-8.7-.5-13-1.4-1.5-.3-2.7.2-3.4 1.6a98 98 0 0 1-59 43.9 71.3 71.3 0 0 1-33.6 1c-2-.6-3.2.7-4.3 2.2a44 44 0 0 1-20.2 14.8 42.4 42.4 0 0 1-43.2-6.7c9.9-6 19.3-13 28-20.6a233 233 0 0 0 49.3-58.1c7.9 1.3 16 2 24 1 6.6 6.1 13.6 11.4 22.3 14.2l2.8-1.1c-.2-1.6.7-3.7-1-4.5-3.4-1.7-7-3-10.2-5.2a100 100 0 0 1-30.8-36.8l-.3-.5c-6-11-9.9-23.2-12.5-35.5a97.6 97.6 0 0 0 25.1 7.8c9.8 1.3 20 .8 29.5-2 2-.7 3.8-2.3 2.9-4.5-.6-2.5-3-1.8-5-1.4a62 62 0 0 1-28.9 1.4 85.6 85.6 0 0 1-42.1-21.4 106.5 106.5 0 0 1-23-31c-9.3-18.5-13.8-37.3-20.3-56.6a245 245 0 0 0-25.4-55.6 74.7 74.7 0 0 0-32-29c-6.1-2.9-12.3-3.5-18.9-4.5 2.1-5.3 4.6-10.5 6.4-16 .7-2.2-.5-3.8-2.5-4.6-2 .1-3.8 1-5.5 2-7.5 4-14.7 8.3-21.9 13-2.4-5.4-4.7-10.5-8.9-14.8a54.9 54.9 0 0 0-32.4-16.4 51.7 51.7 0 0 0-30 6c-10.5 5.6-20 13-28.2 21.7-8.2 9-15 19.6-20.8 30.2-16.6 31.9-25.3 65.8-38.5 98.5a395.8 395.8 0 0 1-37.1 74.9 119.1 119.1 0 0 1-39.4 38.5 86 86 0 0 1-26 9.2c-2.6.5-5.5.9-7.9 2-2 1-1.3 2.8-.8 4.4v.2h.2c3.3 1.4 7.1-.2 10.5-.8 9-1.7 17.5-4.8 25.8-8.8 3 7.4 6.6 14.6 10.7 21.5a270.2 270.2 0 0 0 42.3 54.2 40.3 40.3 0 0 1-25.8 19.9 62 62 0 0 1-64.4-22.3c-4.6-6.7-8-14.2-7.9-22.4-.2-2.8.8-6.2-1.2-8.5-1-1.2-3-1-4.5-1a57.6 57.6 0 0 1-37.3-13.2 96.8 96.8 0 0 1-31.6-47.3c-5.5-17.9-6.6-37-1.9-55.1a53.4 53.4 0 0 0 50-18.6A81.5 81.5 0 0 0 266 428c.5-2-.2-3.8-.8-5.8-1.9-1-3.7-1.7-4.8-3.6-3.7-6-5.2-13.6-4.8-20.6.9-12 6.1-24 12-34.5A152.9 152.9 0 0 1 299 324a210 210 0 0 1 37.6-26.4c13.3-7.6 26.7-15 40.6-21.3 17.7-8.4 35-15.6 51.4-25.7 22.1-13.1 41.4-31 65.2-40.8 10.7-4.7 21.5-8.6 33.2-9.8Z"/><path d="M509.7 287c6.8.3 13 2.5 19 5.3a38.9 38.9 0 0 1 20.5 22.9c-5.6-.4-10.7-2.3-16.3-2.3-1.3-1-2-2.5-3-3.9a71 71 0 0 0-20.2-22ZM499.3 287.5c10.8 5 19 13.6 25 23.7-6.6.3-13-1-19.6-1.2-6.4-6-13.1-12.4-20.8-16.6 5-2.8 9.8-4.6 15.4-6ZM478.2 297a55 55 0 0 1 17.4 12.4c-6.6.1-13 0-19.6.5-4.9 0-9.7 1-14.6.9 5-5.2 10.8-9.8 16.8-13.8Z"/></g></g><g transform="translate(-161 -83)"/></g></svg>